<svg width="46" height="46" viewBox="0 0 46 46" fill="none" xmlns="http://www.w3.org/2000/svg">
<path d="M7.0899 0.169922C3.27486 0.169922 0.169189 3.27559 0.169189 7.09063V38.2338C0.169189 42.0489 3.27486 45.1545 7.0899 45.1545H29.5822C31.4214 45.1545 33.9751 42.4987 36.9355 39.4778C37.3507 39.0557 37.7486 38.6595 38.1795 38.2338C38.6051 37.8047 39.0549 37.3514 39.4771 36.9362C42.4997 33.9741 45.1538 31.4221 45.1538 29.5829V7.09063C45.1538 3.27559 42.0481 0.169922 38.2331 0.169922H7.0899ZM7.0899 3.63028H38.2331C39.1508 3.63028 40.031 3.99485 40.6799 4.64379C41.3289 5.29273 41.6935 6.17289 41.6935 7.09063V29.5829C41.6935 31.3045 39.9598 31.3131 38.2331 31.3131H33.0426C32.0892 31.3131 31.3124 32.09 31.3124 33.0433V38.3428C31.3124 39.8775 31.3158 41.3758 30.0684 41.6942H7.0899C6.17216 41.6942 5.292 41.3296 4.64306 40.6807C3.99412 40.0317 3.62954 39.1516 3.62954 38.2338V7.09063C3.62954 6.17289 3.99412 5.29273 4.64306 4.64379C5.292 3.99485 6.17216 3.63028 7.0899 3.63028ZM11.9569 14.0113C11.498 14.0542 11.075 14.2777 10.7809 14.6325C10.4867 14.9873 10.3456 15.4444 10.3885 15.9033C10.4314 16.3622 10.6548 16.7852 11.0096 17.0793C11.3644 17.3735 11.8216 17.5146 12.2804 17.4717H33.0426C33.5014 17.4717 33.9415 17.2894 34.266 16.9649C34.5905 16.6405 34.7727 16.2004 34.7727 15.7415C34.7727 15.2826 34.5905 14.8426 34.266 14.5181C33.9415 14.1936 33.5014 14.0113 33.0426 14.0113H12.2804C12.2262 14.0088 12.172 14.0088 12.1178 14.0113C12.0642 14.0088 12.0105 14.0088 11.9569 14.0113ZM11.9569 22.6622C11.498 22.7051 11.075 22.9286 10.7809 23.2834C10.4867 23.6382 10.3456 24.0953 10.3885 24.5542C10.4314 25.0131 10.6548 25.4361 11.0096 25.7302C11.3644 26.0243 11.8216 26.1655 12.2804 26.1226H29.5822C30.0411 26.1226 30.4812 25.9403 30.8056 25.6158C31.1301 25.2914 31.3124 24.8513 31.3124 24.3924C31.3124 23.9335 31.1301 23.4935 30.8056 23.169C30.4812 22.8445 30.0411 22.6622 29.5822 22.6622H12.2804C12.2262 22.6597 12.172 22.6597 12.1178 22.6622C12.0642 22.6597 12.0105 22.6597 11.9569 22.6622Z" fill="black"/>
</svg>
