<svg width="115" height="120" viewBox="0 0 115 120" fill="none" xmlns="http://www.w3.org/2000/svg">
<mask id="mask0_604_454" style="mask-type:luminance" maskUnits="userSpaceOnUse" x="32" y="15" width="83" height="106">
<path d="M32.889 15.3525H114.011V120.002H32.889V15.3525Z" fill="white"/>
</mask>
<g mask="url(#mask0_604_454)">
<mask id="mask1_604_454" style="mask-type:luminance" maskUnits="userSpaceOnUse" x="32" y="15" width="82" height="105">
<path d="M105.589 61.0127C110.157 75.2477 111.626 89.7001 111.626 104.388C118.593 77.6804 106.696 42.1437 98.7067 15.5098C101.002 32.7832 99.9036 42.2085 96.5363 52.6651C86.0147 85.3158 61.7875 103.782 32.9603 119.983C63.8953 109.355 86.9213 88.2849 105.589 61.0127Z" fill="white"/>
</mask>
<g mask="url(#mask1_604_454)">
<path d="M-4.8252 -4.67261H118.951V125.51H-4.8252V-4.67261Z" fill="#58AF31"/>
</g>
</g>
<mask id="mask2_604_454" style="mask-type:luminance" maskUnits="userSpaceOnUse" x="11" y="7" width="82" height="105">
<path d="M11.1313 7.01416H92.8432V111.992H11.1313V7.01416Z" fill="white"/>
</mask>
<g mask="url(#mask2_604_454)">
<mask id="mask3_604_454" style="mask-type:luminance" maskUnits="userSpaceOnUse" x="11" y="7" width="82" height="105">
<path d="M70.9868 16.777C75.3634 13.2761 79.5389 9.49763 84.8444 7.55061C87.3899 6.62103 87.8499 6.75053 89.0378 9.31264C91.2395 14.0206 92.3649 19.0431 92.6462 24.2367C93.8476 46.0425 86.6307 64.8884 73.5904 81.6207C64.5828 93.1872 53.3913 101.817 40.0741 107.39C32.3259 110.632 24.2828 112.533 15.8334 111.848C14.7304 111.765 13.6228 111.58 12.5198 111.418C12.1625 111.363 11.8186 111.201 11.4882 111.094C12.8636 100.023 18.0485 90.6806 23.1485 81.3201C21.8132 85.3992 20.2993 89.4412 19.2052 93.585C18.5576 96.0407 18.3477 98.6722 18.37 101.22C18.3924 103.935 19.8304 105.175 22.4697 105.188C26.3461 105.198 30.0617 104.139 33.554 102.529C59.2416 90.6621 76.8684 71.3491 84.4692 42.9346C86.3181 36.0345 87.3051 28.9494 87.2247 21.7671C87.2024 20.2409 86.9746 18.687 86.6084 17.2164C85.9832 14.7005 84.3442 13.4934 81.8121 13.5258C78.4001 13.5767 75.2606 14.7652 72.206 16.2035C71.7996 16.3978 71.3932 16.5828 70.9734 16.777" fill="white"/>
</mask>
<g mask="url(#mask3_604_454)">
<path d="M-4.82532 -4.67236H118.95V125.51H-4.82532V-4.67236Z" fill="white"/>
</g>
</g>
<mask id="mask4_604_454" style="mask-type:luminance" maskUnits="userSpaceOnUse" x="0" y="0" width="85" height="110">
<path d="M0.0109863 0.331543H84.6256V109.485H0.0109863V0.331543Z" fill="white"/>
</mask>
<g mask="url(#mask4_604_454)">
<mask id="mask5_604_454" style="mask-type:luminance" maskUnits="userSpaceOnUse" x="0" y="0" width="85" height="110">
<path d="M84.3758 3.65201C78.4854 7.72642 72.6038 11.787 66.7089 15.8475C66.6374 15.7689 66.5749 15.7041 66.499 15.6301C67.285 14.7329 68.0978 13.8588 68.848 12.9293C70.0047 11.5048 71.2551 10.122 72.2287 8.55425C72.7691 7.67092 73.2603 6.28812 72.9477 5.45566C72.7155 4.84982 71.0988 4.38734 70.2012 4.53996C66.3963 5.17818 62.444 5.55278 58.8892 6.95871C37.6853 15.3064 22.613 30.1472 15.1684 52.6328C13.199 58.5941 12.3192 64.7913 12.6541 71.2521C11.5511 68.9536 11.2786 63.5842 12.3504 57.8588C13.1766 53.419 14.4405 49.081 15.2934 44.5534C13.4044 49.2937 11.3412 53.9832 9.66199 58.7976C6.53143 67.7835 5.14701 77.0932 5.70078 86.6618C5.81242 88.618 6.15629 90.5836 6.61628 92.4982C7.05393 94.3204 8.08554 94.6672 9.35831 93.3076C11.6448 90.8564 13.7483 88.2388 15.8963 85.6721C17.4326 83.8453 18.9108 81.9862 20.581 80.2287C14.9719 89.1499 11.4751 99.0191 8.16146 109.429C7.14771 108.273 6.15629 107.325 5.3837 106.225C2.48536 102.085 1.47607 97.2478 0.944634 92.304C-1.56071 69.2449 4.86566 48.7989 18.7991 31.0444C30.0933 16.6152 44.4868 6.54711 62.185 2.10734C68.129 0.618165 74.1356 0.164941 80.1645 1.62174C81.5802 1.9686 82.9378 2.57444 84.3222 3.06004C84.3446 3.26353 84.3535 3.45777 84.3758 3.66588" fill="white"/>
</mask>
<g mask="url(#mask5_604_454)">
<path d="M-4.82532 -4.67236H118.95V125.51H-4.82532V-4.67236Z" fill="white"/>
</g>
<mask id="mask6_604_454" style="mask-type:luminance" maskUnits="userSpaceOnUse" x="21" y="19" width="46" height="57">
<path d="M21.769 19.3625H66.249V75.4377H21.769V19.3625Z" fill="white"/>
</mask>
<g mask="url(#mask6_604_454)">
<mask id="mask7_604_454" style="mask-type:luminance" maskUnits="userSpaceOnUse" x="22" y="19" width="45" height="56">
<path d="M54.3384 28.7324C53.1103 28.9359 51.8465 29.0238 50.6496 29.3706C49.6359 29.662 49.0017 29.3475 48.9794 28.2329C48.9481 26.8964 50.1673 25.8373 51.5964 26.087C52.4851 26.235 53.3381 26.5726 54.1821 26.8871C56.5401 27.7612 56.9063 27.6641 58.4917 25.5876C58.8757 25.0927 59.1794 24.5285 59.5233 24.0013C59.4697 23.8301 59.4072 23.6544 59.358 23.4833C58.2639 23.5804 57.1653 23.7007 56.0712 23.7747C55.5174 23.8163 54.9681 23.7747 54.4143 23.7654C54.4858 23.0069 54.3607 22.1421 54.6957 21.5409C54.9368 21.1154 55.7809 21.0507 56.3614 20.8379C56.4597 20.8056 56.5847 20.8379 56.6785 20.8703C58.1478 21.3328 59.6706 22.2947 61.0685 22.1097C62.3502 21.9479 63.489 20.5558 65.1324 19.3904C65.0609 20.4032 65.186 21.0738 64.9448 21.527C63.6944 23.9273 64.1633 26.0547 65.6862 28.1034C65.8961 28.3948 66.1372 28.8295 66.0747 29.144C65.9675 29.6805 65.7487 30.4389 65.3735 30.6008C65.0207 30.7627 64.1767 30.4251 63.9355 30.0366C63.1942 28.8526 62.6404 27.5531 62.0152 26.2905C59.3044 27.7057 58.7016 30.0366 60.3584 32.4692C60.546 32.7374 60.7648 32.9779 60.9523 33.2462C61.5776 34.1526 61.5374 35.1146 60.6487 35.6973C59.7019 36.3262 59.0454 35.5678 58.6256 34.7492C58.1255 33.7318 57.7191 32.6727 57.2725 31.6275C54.0169 33.3525 53.548 35.9239 55.8211 38.56C56.2275 39.0364 56.4061 39.9012 56.3748 40.5579C56.3614 40.9048 55.5397 41.5615 55.2986 41.4782C54.7269 41.247 54.1508 40.7614 53.798 40.2249C53.2443 39.3693 52.8602 38.3889 52.4002 37.4593C49.5108 39.1658 49.158 41.4459 51.2346 43.8646C51.65 44.3502 51.8375 45.1827 51.8375 45.8625C51.8375 46.1955 51.0113 46.8753 50.8059 46.7874C50.1807 46.5423 49.5421 46.066 49.158 45.5064C48.6132 44.7248 48.2827 43.7767 47.8629 42.9027C44.6922 44.7387 44.317 47.3748 46.6973 49.9554C47.0903 50.3855 47.2913 51.2087 47.2466 51.8238C47.2288 52.1984 46.4964 52.8921 46.2373 52.8181C45.6434 52.6655 45.0048 52.2308 44.643 51.7267C44.0357 50.8619 43.6203 49.8444 43.1202 48.8732C40.1146 51.1532 39.8958 53.1742 42.2315 55.7086C43.0889 56.6382 43.1827 57.8822 42.3699 58.4095C41.316 59.0893 40.6684 58.3447 40.1682 57.5123C39.6368 56.6382 39.2081 55.6994 38.7392 54.7929C36.14 56.1202 35.5148 58.9922 37.2788 61.0779C37.6852 61.5543 38.3015 62.1278 38.2702 62.6134C38.239 63.2192 37.7477 63.973 37.2386 64.306C36.9841 64.4679 36.1088 63.9175 35.756 63.4782C35.1307 62.6966 34.6931 61.7578 33.9205 60.4536C33.063 62.1046 31.951 63.3811 31.8439 64.7408C31.759 65.7351 33.0318 66.8265 33.6391 67.9041C33.9294 68.4313 34.4207 69.2869 34.2331 69.5783C33.9294 70.0639 33.1479 70.3552 32.5316 70.4523C32.219 70.5078 31.7278 70.0084 31.4777 69.6522C30.9596 68.8984 30.5532 68.066 29.9771 67.0716C28.5615 68.3573 27.8916 69.9251 27.4003 71.5854C26.9136 73.2179 25.9311 74.2863 24.2832 74.9661C23.8366 72.959 24.7298 71.4235 25.3907 69.8604C26.0338 68.3342 26.8064 66.8589 27.5164 65.3651C27.4227 65.2032 27.32 65.0414 27.2262 64.8795C26.2973 65.0321 25.3594 65.1616 24.4305 65.3466C23.8678 65.4622 23.0819 65.9802 22.8139 65.7675C22.4164 65.4437 22.144 64.5558 22.2825 64.047C22.4566 63.4135 23.0015 62.6319 23.5642 62.4053C24.2519 62.1278 25.1406 62.2665 25.9087 62.396C29.3117 62.9787 30.2406 62.3868 31.3973 58.6916C30.1558 58.0996 29.008 57.9886 27.8827 59.0153C27.6192 59.2512 27.0252 59.4917 26.8376 59.3483C26.5027 59.1032 26.1901 58.5852 26.1812 58.1644C26.141 56.8463 26.7974 55.9075 28.1015 55.7872C28.9768 55.6994 29.9548 55.741 30.7587 56.0693C32.7415 56.8879 34.0053 56.0786 35.0236 54.4275C35.3898 53.8402 35.7336 53.2482 36.14 52.5684C34.711 51.8747 33.532 51.6388 32.2949 52.6563C31.3437 53.4332 30.6158 53.0447 30.4684 51.8007C30.3031 50.4179 31.4062 49.1969 32.7817 49.3819C33.724 49.5114 34.6797 49.7149 35.5595 50.0941C37.3413 50.8619 38.498 50.1913 39.3554 48.5911C39.6859 47.976 39.9985 47.3609 40.3245 46.7458C40.2709 46.5608 40.2174 46.3897 40.1682 46.2047C39.1991 46.2926 38.1854 46.2371 37.2788 46.5192C36.5062 46.7458 35.8274 47.7078 35.2245 46.3666C34.7556 45.3306 35.2335 43.9155 36.3187 43.6889C37.2074 43.5085 38.2256 43.6149 39.1143 43.8507C42.4815 44.7572 43.4328 44.3178 45.1298 40.7198C43.9419 40.137 42.8254 39.9012 41.5973 40.6781C41.1909 40.9371 40.2084 41.0759 40.1236 40.914C39.8333 40.3544 39.5832 39.5636 39.7395 38.9901C40.0744 37.7738 41.0837 37.3159 42.2627 37.5426C43.2541 37.7275 44.2456 37.9773 45.1745 38.3658C46.6125 38.9809 47.6218 38.5508 48.4077 37.2419C48.8543 36.5066 49.3322 35.7944 49.8458 34.9943C48.5819 34.2497 47.5101 34.1434 46.3088 34.8463C45.8801 35.0914 44.8306 35.0822 44.7145 34.8463C44.4421 34.3052 44.2992 33.2693 44.5984 32.9317C45.1432 32.3397 46.0408 31.8865 46.8313 31.7986C47.6218 31.7107 48.4792 32.1223 49.2831 32.3952C51.7839 33.223 51.9 33.2045 53.548 31.0216C53.932 30.5129 54.258 29.9626 54.6108 29.4354C54.526 29.1856 54.4456 28.9498 54.3518 28.7" fill="white"/>
</mask>
<g mask="url(#mask7_604_454)">
<path d="M-4.82532 -4.67212H118.95V125.51H-4.82532V-4.67212Z" fill="white"/>
</g>
</g>
<mask id="mask8_604_454" style="mask-type:luminance" maskUnits="userSpaceOnUse" x="25" y="22" width="58" height="75">
<path d="M25.636 22.4053H82.6873V96.4708H25.636V22.4053Z" fill="white"/>
</mask>
<g mask="url(#mask8_604_454)">
<mask id="mask9_604_454" style="mask-type:luminance" maskUnits="userSpaceOnUse" x="25" y="22" width="58" height="75">
<path d="M82.1562 22.4976C83.3352 44.0582 76.2925 62.4925 61.841 77.8189C52.025 88.22 40.1548 94.7733 25.9399 96.0266C57.3215 88.7056 81.5086 53.4418 82.1562 22.4976Z" fill="white"/>
</mask>
<g mask="url(#mask9_604_454)">
<path d="M-4.82532 -4.67261H118.95V125.51H-4.82532V-4.67261Z" fill="white"/>
</g>
</g>
</g>
</svg>
