<svg width="55" height="55" viewBox="0 0 55 55" fill="none" xmlns="http://www.w3.org/2000/svg">
<path fill-rule="evenodd" clip-rule="evenodd" d="M32.7424 5.0449V8.18044H7.13554V48.9424H47.8975V23.3355H51.0331V49.465C51.0331 50.158 50.7578 50.8226 50.2677 51.3127C49.7777 51.8027 49.1131 52.078 48.4201 52.078H6.61295C5.91995 52.078 5.25534 51.8027 4.76531 51.3127C4.27529 50.8226 4 50.158 4 49.465V7.65785C4 6.96485 4.27529 6.30024 4.76531 5.81022C5.25534 5.32019 5.91995 5.0449 6.61295 5.0449H32.7424ZM48.0543 4.38121C48.2992 4.13709 48.6309 4 48.9767 4C49.3225 4 49.6542 4.13709 49.899 4.38121L51.7438 6.22334C51.9879 6.46823 52.125 6.79992 52.125 7.14571C52.125 7.4915 51.9879 7.82319 51.7438 8.06808L26.8946 32.9172L20.8404 36.301C20.6911 36.3831 20.5191 36.4143 20.3504 36.3899C20.1818 36.3655 20.0257 36.2868 19.9057 36.1657C19.7858 36.0446 19.7086 35.8877 19.6859 35.7188C19.6631 35.5499 19.696 35.3782 19.7796 35.2297L23.2078 29.2303L48.0543 4.38121Z" fill="#108B37"/>
</svg>
