<svg width="45" height="45" viewBox="0 0 45 45" fill="none" xmlns="http://www.w3.org/2000/svg">
<path d="M12.1974 45C9.94737 45 7.91447 44.8224 6.09868 44.4671C4.28289 44.1118 3 43.5395 2.25 42.75C1.53947 42 0.986842 40.6974 0.592105 38.8421C0.197368 36.9868 0 34.8947 0 32.5658C0 28.0263 0.799737 23.6747 2.39921 19.5111C3.99868 15.3474 6.19895 11.8437 9 9C11.8026 6.19737 15.3063 3.9971 19.5111 2.39921C23.7158 0.801316 28.1463 0.00157895 32.8026 0C35.0526 0 37.0855 0.177631 38.9013 0.532894C40.7171 0.888158 42 1.46053 42.75 2.25C43.4605 3 44.0132 4.30263 44.4079 6.15789C44.8026 8.01316 45 10.1053 45 12.4342C45 16.9737 44.201 21.326 42.6032 25.4913C41.0053 29.6566 38.8042 33.1595 36 36C33.1974 38.8026 29.6945 41.0037 25.4913 42.6032C21.2882 44.2026 16.8568 45.0016 12.1974 45ZM4.85526 31.6184C6.15789 28.7763 7.73684 26.0037 9.5921 23.3005C11.4474 20.5974 13.5 18.0805 15.75 15.75C18 13.5 20.4774 11.4474 23.1821 9.5921C25.8868 7.73684 28.6595 6.15789 31.5 4.85526C27.9079 4.97368 24.3853 5.71421 20.9321 7.07684C17.4789 8.43947 14.6463 10.2253 12.4342 12.4342C10.1053 14.6842 8.28 17.5066 6.95842 20.9013C5.63684 24.296 4.93579 27.8684 4.85526 31.6184ZM13.5 40.1447C17.0921 40.0263 20.6155 39.2866 24.0703 37.9255C27.525 36.5645 30.3568 34.7779 32.5658 32.5658C34.8947 30.3158 36.7208 27.4934 38.0439 24.0987C39.3671 20.7039 40.0674 17.1316 40.1447 13.3816C38.8421 16.2237 37.2734 18.9971 35.4387 21.7018C33.6039 24.4066 31.541 26.9226 29.25 29.25C27 31.5 24.5234 33.5526 21.8203 35.4079C19.1171 37.2632 16.3437 38.8421 13.5 40.1447ZM7.57895 37.421C10.7368 36.3553 13.9539 34.7763 17.2303 32.6842C20.5066 30.5921 23.3684 28.3026 25.8158 25.8158C28.421 23.25 30.7697 20.3289 32.8618 17.0526C34.9539 13.7763 36.4737 10.6184 37.421 7.57895C34.2632 8.64474 31.0461 10.2237 27.7697 12.3158C24.4934 14.4079 21.6316 16.6974 19.1842 19.1842C16.5789 21.75 14.2303 24.6711 12.1382 27.9474C10.0461 31.2237 8.52631 34.3816 7.57895 37.421Z" fill="black"/>
</svg>
