<svg width="50" height="50" viewBox="0 0 50 50" fill="none" xmlns="http://www.w3.org/2000/svg">
<mask id="mask0_913_2662" style="mask-type:luminance" maskUnits="userSpaceOnUse" x="0" y="0" width="50" height="50">
<path d="M0.0219727 0.967285H49.022V49.9673H0.0219727V0.967285Z" fill="white"/>
</mask>
<g mask="url(#mask0_913_2662)">
<path fill-rule="evenodd" clip-rule="evenodd" d="M0.0219727 25.6041C0.0219727 37.7867 8.86852 47.9134 20.4386 49.9673V32.2722H14.3136V25.4673H20.4386V20.0222C20.4386 13.8972 24.3852 10.4957 29.9671 10.4957C31.7352 10.4957 33.6421 10.7673 35.4102 11.0388V17.3006H32.2803C29.2852 17.3006 28.6053 18.7972 28.6053 20.7041V25.4673H35.1386L34.0504 32.2722H28.6053V49.9673C40.1754 47.9134 49.022 37.7867 49.022 25.6041C49.022 12.0535 37.997 0.967285 24.522 0.967285C11.047 0.967285 0.0219727 12.0535 0.0219727 25.6041Z" fill="#58AF31"/>
</g>
</svg>
