<svg width="52" height="52" viewBox="0 0 52 52" fill="none" xmlns="http://www.w3.org/2000/svg">
<path d="M36.8553 0.967285C40.6125 0.967285 44.2159 2.45984 46.8727 5.11661C49.5294 7.77337 51.022 11.3767 51.022 15.134V37.8006C51.022 41.5578 49.5294 45.1612 46.8727 47.818C44.2159 50.4747 40.6125 51.9673 36.8553 51.9673H14.1886C10.4314 51.9673 6.82806 50.4747 4.17129 47.818C1.51453 45.1612 0.0219727 41.5578 0.0219727 37.8006V15.134C0.0219727 11.3767 1.51453 7.77337 4.17129 5.11661C6.82806 2.45984 10.4314 0.967285 14.1886 0.967285H36.8553ZM25.522 15.134C22.5162 15.134 19.6335 16.328 17.5081 18.4534C15.3827 20.5788 14.1886 23.4615 14.1886 26.4673C14.1886 29.4731 15.3827 32.3557 17.5081 34.4812C19.6335 36.6066 22.5162 37.8006 25.522 37.8006C28.5278 37.8006 31.4104 36.6066 33.5359 34.4812C35.6613 32.3557 36.8553 29.4731 36.8553 26.4673C36.8553 23.4615 35.6613 20.5788 33.5359 18.4534C31.4104 16.328 28.5278 15.134 25.522 15.134ZM25.522 20.8006C27.0249 20.8006 28.4662 21.3976 29.5289 22.4603C30.5916 23.5231 31.1886 24.9644 31.1886 26.4673C31.1886 27.9702 30.5916 29.4115 29.5289 30.4742C28.4662 31.5369 27.0249 32.134 25.522 32.134C24.0191 32.134 22.5777 31.5369 21.515 30.4742C20.4523 29.4115 19.8553 27.9702 19.8553 26.4673C19.8553 24.9644 20.4523 23.5231 21.515 22.4603C22.5777 21.3976 24.0191 20.8006 25.522 20.8006ZM38.272 10.884C37.5205 10.884 36.7999 11.1825 36.2685 11.7138C35.7371 12.2452 35.4386 12.9658 35.4386 13.7173C35.4386 14.4687 35.7371 15.1894 36.2685 15.7208C36.7999 16.2521 37.5205 16.5506 38.272 16.5506C39.0234 16.5506 39.7441 16.2521 40.2754 15.7208C40.8068 15.1894 41.1053 14.4687 41.1053 13.7173C41.1053 12.9658 40.8068 12.2452 40.2754 11.7138C39.7441 11.1825 39.0234 10.884 38.272 10.884Z" fill="#58AF31"/>
</svg>
