<svg width="46" height="45" viewBox="0 0 46 45" fill="none" xmlns="http://www.w3.org/2000/svg">
<path d="M41.2752 16.4618L9.76616 0.707308C8.52266 0.088401 7.11854 -0.131934 5.74523 0.0763432C4.37193 0.284621 3.09628 0.911374 2.0922 1.87115C1.08813 2.83093 0.404494 4.07702 0.134507 5.43954C-0.135481 6.80205 0.0213185 8.21468 0.583527 9.48482L5.98507 21.5708C6.10764 21.863 6.17076 22.1767 6.17076 22.4936C6.17076 22.8104 6.10764 23.1241 5.98507 23.4163L0.583527 35.5023C0.125971 36.5302 -0.0674596 37.6561 0.0208138 38.7778C0.109087 39.8995 0.476266 40.9813 1.08898 41.925C1.7017 42.8686 2.54052 43.6442 3.52922 44.1813C4.51792 44.7183 5.62516 44.9997 6.75029 45C7.80412 44.9895 8.84224 44.7434 9.78866 44.2798L41.2977 28.5253C42.4154 27.963 43.3548 27.1013 44.0113 26.0362C44.6677 24.9712 45.0153 23.7447 45.0153 22.4936C45.0153 21.2424 44.6677 20.0159 44.0113 18.9509C43.3548 17.8858 42.4154 17.0241 41.2977 16.4618H41.2752ZM39.2721 24.4966L7.76308 40.2511C7.34933 40.4498 6.88473 40.5172 6.43157 40.4444C5.97842 40.3715 5.55837 40.1618 5.22776 39.8434C4.89715 39.5251 4.67178 39.1132 4.58187 38.6632C4.49195 38.2131 4.5418 37.7463 4.72471 37.3253L10.1038 25.2393C10.1734 25.0779 10.2335 24.9126 10.2838 24.7442H25.7907C26.3877 24.7442 26.9601 24.5071 27.3822 24.085C27.8043 23.6629 28.0414 23.0905 28.0414 22.4936C28.0414 21.8966 27.8043 21.3242 27.3822 20.9021C26.9601 20.48 26.3877 20.2429 25.7907 20.2429H10.2838C10.2335 20.0745 10.1734 19.9092 10.1038 19.7478L4.72471 7.6618C4.5418 7.24085 4.49195 6.77403 4.58187 6.32395C4.67178 5.87386 4.89715 5.46203 5.22776 5.14366C5.55837 4.8253 5.97842 4.61562 6.43157 4.54275C6.88473 4.46988 7.34933 4.5373 7.76308 4.73596L39.2721 20.4905C39.6408 20.6793 39.9502 20.9663 40.1662 21.3197C40.3822 21.6731 40.4966 22.0793 40.4966 22.4936C40.4966 22.9078 40.3822 23.314 40.1662 23.6674C39.9502 24.0208 39.6408 24.3078 39.2721 24.4966Z" fill="black"/>
</svg>
